<!--<?xml version="1.0" encoding="UTF-8" standalone="no"?>-->
<svg xmlns:rdf="http://www.w3.org/1999/02/22-rdf-syntax-ns#" xmlns="http://www.w3.org/2000/svg" height="142" width="142" version="1.1" xmlns:cc="http://creativecommons.org/ns#" xmlns:dc="http://purl.org/dc/elements/1.1/" viewBox="0 0 142 142">
<g transform="translate(-352 -448)">
<path fill="#8cc53d" d="m421 589c-2.89-0.351-5.68-1.34-8.05-2.85-1.59-1.02-3.51-2.65-4.11-3.49l-0.455-0.639h14.8 14.8l-0.61 0.731c-3.62 4.34-10.5 6.96-16.3 6.24zm-18-10c-1.18-0.418-2.08-1.51-2.27-2.74-0.115-0.769-0.035-1.2 0.386-2.04 0.989-1.99-0.628-1.86 22.1-1.86 22.2-0.00045 21-0.0859 22 1.53s0.496 3.81-1.1 4.81l-0.849 0.528-19.7 0.0489c-16.5 0.041-19.8-0.002-20.6-0.271zm-0.225-10c-1.35-0.55-2.3-2.42-2.01-3.97 0.202-1.07 1.35-2.24 2.5-2.55 0.666-0.179 6.57-0.235 20.5-0.191 19.2 0.06 19.5 0.0693 20.3 0.519 1.07 0.628 1.67 1.73 1.67 3.07 0 1.23-0.462 2.01-1.66 2.83l-0.744 0.506-20-0.0143c-11-0.008-20.3-0.0969-20.5-0.198zm0.112-9.94c-2.12-0.849-2.86-3.68-1.41-5.4 1.02-1.21 0.993-1.21 9.15-1.33l7.63-0.112 1.13-1.8c5.17-8.24 7.82-16.9 8.17-26.6 0.182-5.05-0.248-9.18-1.59-15.3l-0.148-0.675 0.343 0.562c0.5 0.82 2.28 5.43 2.95 7.65 1.29 4.27 1.71 6.84 1.84 11.4 0.0934 3.34 0.0363 4.84-0.26 6.86-0.727 4.94-2.14 9.29-4.74 14.6l-1.67 3.4h4.16 4.16l1.09-1.67c2.59-3.97 5.13-9.91 6.18-14.4 1.05-4.54 1.15-5.56 1.14-11.6-0.008-4.92-0.0799-6.12-0.506-8.44-1.68-9.15-4.46-16.1-10.1-25.1l-1.92-3.09-0.809 0.608c-4.47 3.36-9.36 7.87-11.8 10.9-1.73 2.14-4.36 6.15-5.43 8.28-2.45 4.87-3.58 9.3-3.88 15.1-0.406 8.07 2.82 17.7 8.29 24.8 0.624 0.804 1.24 1.6 1.37 1.76 0.13 0.166-0.316-0.0221-0.99-0.418-4.73-2.77-9.03-7.51-11.8-13-1.3-2.57-2.7-6.8-3.15-9.52-0.743-4.43-0.278-10.7 1.12-15 0.781-2.42 2.76-6.42 4.29-8.67 4.75-6.98 10.9-12.3 20.4-17.4l2.23-1.22 1.05 0.918c2.47 2.16 6.27 6.81 8.71 10.7 1.65 2.62 4.13 7.67 5.26 10.7 2.99 8.06 3.9 16.8 2.5 24-1.48 7.67-4.52 13.7-10.1 19.9l-1.61 1.8 4.72 0.112c5.15 0.123 5.3 0.161 6.41 1.64 0.95 1.27 0.421 3.64-1.06 4.74-0.634 0.472-0.688 0.474-20.7 0.517-13 0.0284-20.3-0.0357-20.6-0.182zm-8.7-2.68c-0.929-0.371-4.48-2.77-6.87-4.64-10.2-7.98-17.7-19.9-20.5-32.6-1.01-4.53-1.29-7.24-1.32-12.8-0.02-4.38 0.0558-5.68 0.493-8.44 1.58-10 5.21-18.6 11.3-26.7 2.28-3.04 7.84-8.56 11-10.9 10.5-7.82 22-11.7 34.9-11.7 9.54-0.0156 17.6 1.88 25.9 6.03 6.17 3.12 10.3 6.14 15.2 11 4.79 4.8 7.66 8.75 10.6 14.6 4.72 9.38 6.75 19.1 6.15 29.4-1.08 18.5-10.4 34.7-25.8 45-2.74 1.84-3.32 2.06-4.28 1.66-1.05-0.443-1.26-1.5-0.63-3.27 0.488-1.38 1.21-2.24 3.32-3.93 9.58-7.67 16-18.3 18-30 1.79-10.1 0.321-20.7-4.14-29.9-2.71-5.55-5.25-9.15-9.35-13.2-7.78-7.78-17.3-12.6-28-14.2-3.52-0.53-10.2-0.53-13.7-0.00006-14.7 2.22-27.3 10.6-35.1 23.2-2.66 4.32-5.03 10.2-6.04 14.8-2.82 13.1-0.287 26.8 6.95 37.7 3.14 4.71 6.17 7.96 11.3 12.2 1.88 1.53 2.7 2.8 2.97 4.58 0.133 0.884 0.081 1.11-0.373 1.61-0.62 0.683-1.24 0.883-1.91 0.616z"/>
</g>
</svg>
