<!--<?xml version="1.0" encoding="UTF-8" standalone="no"?>-->
<svg xmlns:rdf="http://www.w3.org/1999/02/22-rdf-syntax-ns#" style="enable-background:new 0 0 112.196 112.196" xmlns="http://www.w3.org/2000/svg" xml:space="preserve" version="1.1" y="0px" x="0px" xmlns:cc="http://creativecommons.org/ns#" xmlns:dc="http://purl.org/dc/elements/1.1/" viewBox="0 0 112.196 112.196"><path d="m56.1 0a56.1 56.1 0 0 0 -56.1 56.1 56.1 56.1 0 0 0 56.1 55.9 56.1 56.1 0 0 0 55.9 -55.9 56.1 56.1 0 0 0 -55.9 -56.1zm4.2 21.8h11.3v12.5h-8.2c-1.3 0-3.2 0.6-3.2 3.5v7.5h11.3l-1.3 12.9v0.1h-10v36.7h-15.2v-36.7h-7.2v-12.9h7.2v-8.3c0-6 2.8-15.3 15.3-15.3z"/></svg>
