<!--<?xml version="1.0" encoding="UTF-8" standalone="no"?>-->
<svg xmlns:rdf="http://www.w3.org/1999/02/22-rdf-syntax-ns#" style="enable-background:new 0 0 112.196 112.196" xmlns="http://www.w3.org/2000/svg" xml:space="preserve" version="1.1" y="0px" x="0px" xmlns:cc="http://creativecommons.org/ns#" xmlns:dc="http://purl.org/dc/elements/1.1/" viewBox="0 0 112.196 112.196"><path id="XMLID_30_" d="m56.1 0a56.1 56.1 0 0 0 -56.1 56.1 56.1 56.1 0 0 0 56.1 55.9 56.1 56.1 0 0 0 55.9 -55.9 56.1 56.1 0 0 0 -55.9 -56.1zm-13.6 35.4c5.7-0.1 11.2 2.2 15.5 5.8-1.9 2.1-3.8 4.1-5.9 6-4-2.4-8.9-4.3-13.7-2.6-7.6 2.2-12.3 11.2-9.4 18.7 2.3 7.8 11.8 12.1 19.3 8.8 3.9-1.4 6.4-4.9 7.5-8.8-4.4-0.1-8.8 0-13.3-0.1v-7.9h22.1c0.5 6.5-0.5 13.3-4.7 18.5-5.7 7.4-16.3 9.6-24.9 6.7-9-2.7-15.7-11.9-15.5-21.6v-0.3c-0.5-11.9 10-22.9 21.9-23.1 0.4 0 0.8-0.1 1.1-0.1zm36.6 13.3h6.6v6.6h6.6v6.6l-6.6 0.1v6.6h-6.6c0-2.2 0-4.4-0.1-6.6-2.2 0-4.4-0.1-6.6-0.1v-6.5c2.2-0.1 4.4-0.1 6.6-0.1v-6.6h0.1z"/></svg>
