<!--<?xml version="1.0" encoding="UTF-8" standalone="no"?>-->
<svg xmlns:rdf="http://www.w3.org/1999/02/22-rdf-syntax-ns#" style="enable-background:new 0 0 89.758 89.758" xmlns="http://www.w3.org/2000/svg" xml:space="preserve" version="1.1" y="0px" x="0px" xmlns:cc="http://creativecommons.org/ns#" xmlns:dc="http://purl.org/dc/elements/1.1/" viewBox="0 0 89.758 89.758"><g><path d="m58.3 23.9h-26.8c-4.27 0-7.74 3.47-7.74 7.74v26.8c0 4.27 3.47 7.74 7.74 7.74h26.8c4.27 0 7.74-3.47 7.74-7.74v-26.8c0-4.2-3.5-7.7-7.7-7.7zm-13.4 35c-7.67 0-13.9-6.24-13.9-13.9 0-7.67 6.24-13.9 13.9-13.9 7.67 0 13.9 6.24 13.9 13.9 0 7.7-6.3 13.9-13.9 13.9zm14.3-24.9c-1.82 0-3.29-1.48-3.29-3.29s1.48-3.29 3.29-3.29 3.29 1.48 3.29 3.29c0 1.8-1.5 3.3-3.3 3.3z"/><path d="m44.9 37c-4.43 0-8.03 3.6-8.03 8.03s3.6 8.03 8.03 8.03 8.03-3.6 8.03-8.03c0-4.4-3.6-8-8-8z"/><path d="m44.9 0c-24.8 0-44.9 20.1-44.9 44.9s20.1 44.9 44.9 44.9 44.9-20.1 44.9-44.9-20.1-44.9-44.9-44.9zm27 58.4c0 7.51-6.11 13.6-13.6 13.6h-26.8c-7.51 0-13.6-6.11-13.6-13.6v-26.8c0-7.51 6.11-13.6 13.6-13.6h26.8c7.51 0 13.6 6.11 13.6 13.6v26.8z"/></g></svg>
