<!--<?xml version="1.0" encoding="UTF-8" standalone="no"?>-->
<svg xmlns:rdf="http://www.w3.org/1999/02/22-rdf-syntax-ns#" style="enable-background:new 0 0 112.196 112.196" xmlns="http://www.w3.org/2000/svg" xml:space="preserve" version="1.1" y="0px" x="0px" xmlns:cc="http://creativecommons.org/ns#" xmlns:dc="http://purl.org/dc/elements/1.1/" viewBox="0 0 112.196 112.196"><path d="m56.1 0a56.1 56.1 0 0 0 -56.1 56.1 56.1 56.1 0 0 0 56.1 55.9 56.1 56.1 0 0 0 55.9 -55.9 56.1 56.1 0 0 0 -55.9 -56.1zm-21.4 24c4.5 0 7.4 3 7.5 7 0 3.8-2.9 6.9-7.6 6.9h-0.1c-4.5 0-7.4-3.1-7.4-6.9 0-4 3-7 7.6-7zm39.5 18.5c8.8 0 15.4 5.7 15.4 18.1v23.1h-13.4v-21.5c0-5.4-1.9-9.1-6.8-9.1-3.7 0-5.9 2.5-6.9 4.9-0.3 0.8-0.4 2-0.4 3.2v22.6h-13.4s0.2-36.6 0-40.4h13.4v5.8c1.8-2.8 4.9-6.7 12.1-6.7zm-12.1 6.7l-0.1 0.1h0.1v-0.1zm-34.2-5.8h13.4v40.3h-13.4v-40.3z"/></svg>
