<!--<?xml version="1.0" encoding="UTF-8" standalone="no"?>-->
<svg xmlns:rdf="http://www.w3.org/1999/02/22-rdf-syntax-ns#" style="enable-background:new 0 0 112.198 112.198" xmlns="http://www.w3.org/2000/svg" xml:space="preserve" version="1.1" y="0px" x="0px" xmlns:cc="http://creativecommons.org/ns#" xmlns:dc="http://purl.org/dc/elements/1.1/" viewBox="0 0 112.198 112.198"><path d="m56.1 0a56.1 56.1 0 0 0 -56.1 56.1 56.1 56.1 0 0 0 56.1 55.9 56.1 56.1 0 0 0 55.9 -55.9 56.1 56.1 0 0 0 -55.9 -56.1zm1.9 24.8c12.5 0.5 23.2 7.3 24.9 19.4 2.2 15.4-6.5 32.2-22.2 31l-0.1-0.1c-4.2-0.3-6-2.4-9.4-4.4-1.8 9.5-4 18.7-10.6 23.5-2.1-14.4 3-25.4 5.3-36.9-4-6.7 0.5-20.2 8.9-16.9 10.4 4.1-9 25.1 4 27.7 13.6 2.7 19.1-23.5 10.7-32-12.1-12.3-35.3-0.3-32.5 17.3 0.7 4.4 5.1 5.7 1.8 11.7-7.8-1.8-10.1-7.9-9.8-16 0.5-13.4 12-22.7 23.6-24 1.8-0.3 3.6-0.3 5.4-0.3z"/></svg>
