<!--<?xml version="1.0" encoding="UTF-8" standalone="no"?>-->
<svg xmlns:rdf="http://www.w3.org/1999/02/22-rdf-syntax-ns#" style="enable-background:new 0 0 112.197 112.197" xmlns="http://www.w3.org/2000/svg" xml:space="preserve" version="1.1" y="0px" x="0px" xmlns:cc="http://creativecommons.org/ns#" xmlns:dc="http://purl.org/dc/elements/1.1/" viewBox="0 0 112.197 112.197"><path d="m56.1 0a56.1 56.1 0 0 0 -56.1 56.1 56.1 56.1 0 0 0 56.1 55.9 56.1 56.1 0 0 0 55.9 -55.9 56.1 56.1 0 0 0 -55.9 -56.1zm14.3 34c3.9 0 7.3 1.6 9.8 4.2 3-0.6 5.9-1.7 8.5-3.2-1 3.1-3.1 5.8-5.9 7.4 2.7-0.3 5.2-1 7.6-2v-0.1h0.1s-0.1 0-0.1 0.1c-1.8 2.6-4.1 5-6.5 6.8 0 0.6 0.1 1.1 0.1 1.7 0 17.8-13.5 38.2-38.2 38.2-7.6 0-14.7-2.2-20.6-6 1 0.1 2.1 0.2 3.2 0.2 6.3 0 12.1-2.2 16.7-5.8-5.9-0.1-10.8-3.9-12.5-9.3 0.8 0.2 1.6 0.3 2.5 0.3 1.2 0 2.4-0.2 3.5-0.5-6.2-1.2-10.8-6.6-10.8-13.1v-0.2c1.8 1 3.9 1.6 6.1 1.7-3.6-2.4-6-6.5-6-11.2 0-2.4 0.7-4.7 1.8-6.7 6.6 8.1 16.5 13.4 27.6 14-0.2-1-0.3-2-0.3-3.1 0-7.4 6-13.4 13.4-13.4z"/></svg>
