<?xml version="1.0" encoding="UTF-8" standalone="no"?>
<svg xmlns:rdf="http://www.w3.org/1999/02/22-rdf-syntax-ns#" xmlns="http://www.w3.org/2000/svg" height="26.7" width="352" version="1.1" xmlns:cc="http://creativecommons.org/ns#" xmlns:dc="http://purl.org/dc/elements/1.1/" viewBox="0 0 352.50701 26.686673">
<path fill="#433721" d="m185 16.2c-1.55 0-2.81-1.26-2.81-2.81s1.26-2.81 2.81-2.81 2.81 1.26 2.81 2.81-1.26 2.81-2.81 2.81zm-14.4 2.29c-2.81 0-5.1-2.29-5.1-5.1s2.29-5.1 5.1-5.1 5.1 2.29 5.1 5.1-2.29 5.1-5.1 5.1zm-14.4-2.29c-1.55 0-2.81-1.26-2.81-2.81s1.26-2.81 2.81-2.81 2.81 1.26 2.81 2.81-1.26 2.81-2.81 2.81zm192-7.23c-2.09 0-3.84 1.47-4.27 3.43h-4.59c2.57-2.03 3.98-5.21 2.34-8.73-2.66-5.74-11.7-4.47-12.7 1.74-0.282 1.86 3.42 1.4 3.67-0.264 0.625-4.11 4.88-2.25 5.83 0.608 0.996 2.98-1.64 6.36-4.68 6.26-0.55-0.0161-4.78 0.384-6.36 0.384-0.432-1.96-2.18-3.43-4.27-3.43s-3.84 1.47-4.27 3.43h-128c-0.464-2.46-2.62-4.33-5.21-4.33s-4.75 1.87-5.21 4.33h-1.64c-0.486-3.72-3.67-6.61-7.53-6.61-3.85 0-7.04 2.89-7.53 6.61h-1.64c-0.465-2.46-2.62-4.33-5.21-4.33s-4.75 1.87-5.21 4.33h-118c-0.432-1.96-2.18-3.43-4.27-3.43s-3.84 1.47-4.27 3.43c-1.63 0-6.86-0.3-7.42-0.216-2.68-0.752-4.48-3.36-4.4-6.24 0.0425-1.45 0.992-3.19 2.44-3.66 2.16-0.702 3.5 2.07 3.66 3.66 0.115 1.14 3.76 0.356 3.62-0.97-0.655-6.46-8.96-5.34-12.1-1.6-1.65 1.95-1.56 5.08-0.289 7.18 0.44 0.728 0.966 1.33 1.55 1.85h-3.5c-0.432-1.96-2.18-3.43-4.27-3.43-2.42 0-4.38 1.96-4.38 4.38s1.96 4.38 4.38 4.38c2.09 0 3.84-1.47 4.27-3.43h4.08c-2.62 2.02-4.09 5.21-2.44 8.76 2.64 5.7 11.7 4.39 12.7-1.76 0.274-1.8-3.42-1.3-3.67 0.292-0.634 4.19-4.87 2.25-5.84-0.619-0.996-2.98 1.6-6.4 4.67-6.31 0.532 0.0161 5.19-0.363 6.99-0.363 0.431 1.96 2.18 3.43 4.27 3.43s3.84-1.47 4.27-3.43h118c0.43 2.5 2.6 4.42 5.22 4.42s4.79-1.91 5.22-4.42h1.61c0.448 3.77 3.66 6.7 7.54 6.7s7.09-2.93 7.54-6.7h1.61c0.43 2.5 2.6 4.42 5.22 4.42s4.79-1.91 5.22-4.42h128c0.431 1.96 2.18 3.43 4.27 3.43s3.84-1.47 4.27-3.43c1.4 0 6.52 0.365 7.21 0.234 2.33 0.877 3.81 3.21 4.01 5.78 0.115 1.5-0.92 3.84-2.54 4.17-2.13 0.434-3.4-2.14-3.57-3.78-0.103-0.998-3.75-0.241-3.62 0.97 0.652 6.39 8.98 5.25 12.1 1.55 1.8-2.13 1.45-5.22 0.108-7.45-0.348-0.576-0.77-1.06-1.24-1.48h3.22 0.154c0.178 0 0.388-0.0425 0.605-0.108 0.389 2.02 2.16 3.54 4.29 3.54 2.42 0 4.38-1.96 4.38-4.38s-1.96-4.38-4.38-4.38"/>
</svg>
