<?xml version="1.0" encoding="UTF-8" standalone="no"?>
<svg xmlns:rdf="http://www.w3.org/1999/02/22-rdf-syntax-ns#" xmlns="http://www.w3.org/2000/svg" height="60.8" width="206" version="1.1" xmlns:cc="http://creativecommons.org/ns#" xmlns:dc="http://purl.org/dc/elements/1.1/" viewBox="0 0 206.19411 60.762048">
<path d="m24.8 29.5c-0.417-1.89-2.1-3.31-4.12-3.31s-3.7 1.42-4.12 3.31c-0.335 0-0.84-0.0138-3.39-0.0325-0.428-1.88-2.1-3.28-4.1-3.28-2.33 0-9.04 4.22-9.04 4.22s6.71 4.22 9.04 4.22c2 0 3.67-1.4 4.1-3.27 2.52-0.0263 3.02-0.0438 3.4-0.0438 0.419 1.89 2.1 3.31 4.12 3.31s3.7-1.42 4.12-3.31h68v-1.82h-68" fill="#433721"/>
<path d="m181 29.5c0.417-1.89 2.1-3.31 4.12-3.31s3.7 1.42 4.12 3.31c0.334 0 0.839-0.0138 3.39-0.0325 0.428-1.88 2.1-3.28 4.1-3.28 2.33 0 9.04 4.22 9.04 4.22s-6.71 4.22-9.04 4.22c-2 0-3.67-1.4-4.1-3.27-2.52-0.0263-3.02-0.0438-3.4-0.0438-0.42 1.89-2.1 3.31-4.12 3.31s-3.7-1.42-4.12-3.31h-68v-1.82h68" fill="#433721"/>
<path d="m91.8 30.3 0.01 0.13 0.628-0.0175 0.001-0.112h0.512l-0.004 0.191c0 5.35 4.52 9.71 10.1 9.71 5.56 0 10.1-4.36 10.1-9.71l-0.003-0.191h0.506l0.001 0.015 0.604 0.01-0.173 0.111c0.363-0.0263 0.768-0.0725 1.22-0.136 0 0-0.055 0.492-1 0.492l-0.0212-0.245-0.626 0.0188c-0.002 0.348-0.025 0.702-0.065 1.06l-0.0388 0.324 0.336 0.0125c1.53 0.0588 9.17 0.449 12.7 2.49l-0.065 0.095 0.471 0.391c0.202-0.175 0.449-0.274 0.708-0.291h0.0762c0.624 0 1.14 0.469 1.18 1.06 0.0437 0.626-0.451 1.17-1.1 1.21l-0.0787 0.001c-0.62 0-1.14-0.466-1.18-1.07-0.0125-0.161 0.015-0.322 0.0763-0.479l0.0925-0.229-0.209-0.134c-3.33-2.12-11.3-2.51-12.8-2.56l-0.262-0.008-0.0575 0.244-0.0725 0.274-0.149 0.545 0.456-0.0562c0.428-0.05 0.891-0.0763 1.38-0.0763 3.57 0 9.43 1.51 9.95 5.56 0.186 1.45-0.149 2.7-0.976 3.6-0.892 0.971-2.3 1.51-3.97 1.51h-0.05c-2.11-0.0137-4.2-1.78-4.74-4.02-0.198-0.812-0.0237-1.71 0.469-2.4 0.31-0.434 0.886-0.979 1.86-1.11l0.255-0.0138c0.825 0 1.71 0.476 2.15 1.16 0.241 0.371 0.45 0.96 0.128 1.7-0.446 0.106-1.48 0.426-1.6 1.12-0.0863 0.499 0.319 0.986 1.23 1.5l0.0312 0.0163 0.0362 0.0113c0.0263 0.007 0.646 0.184 1.39 0.184 0.885 0 1.56-0.245 2.01-0.721 0.471-0.504 0.659-1.24 0.555-2.2-0.0187-0.192-0.581-4.77-10.3-5.7l-0.249-0.0225-0.0775 0.224c-1.1 3.11-3.69 5.54-6.95 6.5l-0.264 0.0763 0.0462 0.261c1.6 9.27 6.36 9.51 6.56 9.52l0.21 0.005c1.05 0 1.8-0.31 2.25-0.922 0.848-1.17 0.162-2.98 0.134-3.06l-0.0112-0.0325-0.025-0.03c-0.514-0.744-0.986-1.11-1.44-1.11-0.842 0-1.15 1.18-1.24 1.63-0.29 0.139-0.588 0.21-0.88 0.21-0.544 0-1.08-0.246-1.51-0.695-0.485-0.502-0.761-1.18-0.715-1.77 0.121-1.63 1.63-2.51 2.99-2.51 0.168 0 0.335 0.015 0.492 0.04 2.35 0.378 4.32 2.26 4.47 4.3 0.115 1.56-0.315 2.94-1.21 3.87-0.805 0.83-1.96 1.27-3.35 1.27-0.13 0-0.265-0.005-0.401-0.0112-1.32-0.075-2.52-0.678-3.54-1.79-2.08-2.26-3.03-6.2-2.87-8.76l0.025-0.402-0.409 0.09c-0.134 0.03-0.265 0.0588-0.4 0.0838l-0.281 0.0512 0.0275 0.275c0.095 0.92 1.01 9.08 3.49 12.2l0.151 0.195 0.231-0.101c0.162-0.0738 0.326-0.108 0.491-0.108 0.656 0 1.18 0.51 1.18 1.14 0 0.629-0.529 1.14-1.18 1.14-0.654 0-1.18-0.51-1.18-1.14 0-0.251 0.0875-0.494 0.254-0.699l-0.436-0.428-0.0937 0.0675c-2.44-3.42-3.32-11.3-3.42-12.2l-0.0312-0.296-0.306 0.0238c-0.262 0.0213-0.5 0.0325-0.721 0.0362l-0.0175 0.592-0.135-0.18c0.112 1.46 0.555 3.64 1.28 7.23l0.426 2.11c0.96 4.74-0.814 8.92-1.5 10.3-0.764-1.33-2.76-5.37-1.88-9.89 1.17-5.97 1.29-8.7 1.29-9.54l0.276-0.0225-0.0138-0.602c-0.372-0.005-0.75-0.0288-1.12-0.07l-0.335-0.0387-0.0138 0.324c-0.0687 1.47-0.519 8.83-2.65 12.2l-0.0975-0.0625-0.409 0.45c0.179 0.196 0.282 0.434 0.3 0.684 0.0362 0.628-0.46 1.17-1.11 1.2l-0.0737 0.002c-0.625 0-1.14-0.471-1.18-1.07-0.0187-0.304 0.0863-0.598 0.295-0.825 0.21-0.228 0.5-0.362 0.816-0.381l0.0662-0.001c0.144 0 0.289 0.0275 0.432 0.0813l0.235 0.0888 0.141-0.204c2.21-3.19 2.66-10.9 2.73-12.4l0.0112-0.252-0.254-0.0562c-0.116-0.025-0.229-0.055-0.344-0.0838l-0.504-0.132 0.0538 0.445c0.429 3.52-1.17 10.4-5.75 10.9-0.261 0.0288-0.521 0.045-0.769 0.045-1.27 0-2.36-0.404-3.14-1.17-0.899-0.878-1.39-2.2-1.36-3.71 0.0238-2.04 1.86-4.03 4.19-4.54 0.218-0.0487 0.445-0.0725 0.676-0.0725 1.31 0 2.74 0.804 2.95 2.34 0.0838 0.605-0.172 1.34-0.656 1.87-0.425 0.466-0.965 0.724-1.52 0.724-0.26 0-0.52-0.055-0.784-0.162-0.118-0.462-0.476-1.56-1.29-1.56-0.474 0-0.941 0.389-1.42 1.19l-0.0188 0.03-0.0112 0.035c-0.0238 0.075-0.581 1.88 0.284 3 0.431 0.56 1.12 0.844 2.05 0.844 0.156 0 0.32-0.007 0.489-0.025 0.202-0.015 4.95-0.535 5.97-9.94l0.0275-0.236-0.235-0.08c-3.17-1.05-5.66-3.51-6.66-6.57l-0.0825-0.25-0.269 0.0425c-9.66 1.51-9.93 6.1-9.94 6.3-0.0412 0.936 0.176 1.65 0.652 2.13 0.428 0.43 1.04 0.649 1.83 0.649 0.855 0 1.61-0.262 1.64-0.274l0.0337-0.0112 0.0312-0.0213c0.879-0.559 1.25-1.07 1.13-1.56-0.161-0.684-1.22-0.941-1.67-1.02-0.382-0.745-0.188-1.36 0.0538-1.76 0.432-0.712 1.34-1.23 2.16-1.23l0.135 0.004c0.986 0.0738 1.59 0.581 1.93 0.996 0.536 0.66 0.77 1.54 0.625 2.37-0.4 2.27-2.36 4.15-4.47 4.29-0.165 0.0113-0.326 0.0175-0.488 0.0175-1.53 0-2.84-0.486-3.7-1.37-0.822-0.844-1.21-2.04-1.12-3.45 0.259-4.02 6.17-6.16 10.3-6.16 0.229 0 0.456 0.006 0.669 0.02l0.43 0.0288-0.138-0.529-0.0625-0.261-0.055-0.268-0.285 0.0263c-0.956 0.0888-9.43 0.94-12.7 3.33l-0.201 0.148 0.105 0.22c0.0725 0.154 0.11 0.315 0.11 0.474-0.004 0.629-0.532 1.14-1.19 1.14-0.652-0.002-1.18-0.514-1.18-1.14 0.002-0.628 0.534-1.14 1.19-1.14 0.261 0 0.512 0.0863 0.726 0.249l0.442-0.419-0.0712-0.0925c3.57-2.35 11.8-3.17 12.7-3.26l0.314-0.03-0.03-0.3c-0.0212-0.214-0.0337-0.445-0.0412-0.735l-0.592-0.006 0.164-0.0962c-1.51 0.102-0.212-0.292-0.212-0.292" fill="#433721"/>
<path d="m95 30.3-0.007 0.191c0 4.28 3.61 7.76 8.05 7.76s8.05-3.48 8.05-7.76l-0.008-0.191h0.431l0.008 0.191c0 4.51-3.81 8.17-8.49 8.17s-8.48-3.67-8.48-8.17l0.006-0.191h0.431" fill="#433721"/>
<path d="m91.8 30.4 0.0125-0.13 0.628 0.0188 0.001 0.111h0.511l-0.005-0.192c0-5.35 4.52-9.71 10.1-9.71 5.56 0 10.1 4.36 10.1 9.71l-0.002 0.192h0.505l0.001-0.0137 0.604-0.0113-0.171-0.111c0.36 0.0263 0.766 0.0737 1.22 0.136 0 0-0.055-0.494-1-0.494l-0.0213 0.246-0.628-0.0187c-0.002-0.348-0.025-0.704-0.0637-1.06l-0.0387-0.324 0.336-0.0113c1.53-0.06 9.17-0.449 12.7-2.49l-0.065-0.0937 0.471-0.391c0.202 0.175 0.446 0.274 0.705 0.29l0.0787 0.001c0.622 0 1.14-0.468 1.18-1.07 0.0425-0.626-0.451-1.17-1.1-1.21l-0.0775-0.002c-0.621 0-1.14 0.466-1.18 1.07-0.0125 0.16 0.015 0.321 0.0763 0.479l0.0925 0.228-0.21 0.135c-3.33 2.12-11.3 2.5-12.8 2.56l-0.261 0.007-0.0575-0.244-0.0725-0.274-0.149-0.545 0.456 0.055c0.428 0.05 0.89 0.0763 1.38 0.0763 3.57 0 9.44-1.51 9.95-5.56 0.188-1.45-0.149-2.7-0.975-3.6-0.892-0.972-2.3-1.51-3.97-1.51h-0.0513c-2.11 0.0138-4.2 1.78-4.74 4.02-0.2 0.812-0.0238 1.71 0.469 2.4 0.309 0.434 0.886 0.979 1.86 1.11l0.255 0.0138c0.824 0 1.71-0.476 2.15-1.16 0.244-0.371 0.452-0.962 0.13-1.7-0.446-0.108-1.48-0.426-1.6-1.12-0.0875-0.5 0.318-0.989 1.23-1.5l0.03-0.0175 0.0375-0.01c0.0237-0.007 0.646-0.184 1.39-0.184 0.886 0 1.56 0.244 2.01 0.721 0.471 0.504 0.659 1.24 0.552 2.2-0.0162 0.195-0.579 4.77-10.3 5.7l-0.249 0.0225-0.0775-0.224c-1.1-3.11-3.69-5.54-6.95-6.5l-0.264-0.0762 0.0462-0.261c1.6-9.27 6.36-9.52 6.56-9.52l0.21-0.004c1.05 0 1.8 0.309 2.25 0.921 0.848 1.17 0.161 2.98 0.132 3.06l-0.0125 0.0325-0.0225 0.0312c-0.515 0.744-0.988 1.1-1.45 1.1-0.84 0-1.15-1.18-1.24-1.63-0.289-0.14-0.586-0.21-0.879-0.21-0.544 0-1.08 0.245-1.52 0.694-0.484 0.502-0.76 1.18-0.712 1.77 0.121 1.63 1.63 2.51 2.99 2.51 0.168 0 0.332-0.0163 0.492-0.04 2.35-0.379 4.32-2.26 4.47-4.3 0.115-1.56-0.315-2.94-1.21-3.87-0.805-0.83-1.96-1.27-3.35-1.27-0.131 0-0.265 0.004-0.402 0.0113-1.32 0.075-2.51 0.677-3.54 1.79-2.08 2.26-3.03 6.2-2.87 8.76l0.0225 0.402-0.408-0.09c-0.132-0.03-0.264-0.06-0.4-0.0837l-0.28-0.0525 0.0275-0.274c0.095-0.921 1.01-9.08 3.49-12.2l0.151-0.195 0.231 0.1c0.16 0.0738 0.325 0.109 0.491 0.109 0.655 0 1.18-0.511 1.18-1.14s-0.53-1.14-1.18-1.14c-0.654 0-1.18 0.511-1.18 1.14 0 0.252 0.0875 0.494 0.254 0.699l-0.438 0.428-0.0925-0.0688c-2.44 3.42-3.32 11.3-3.42 12.2l-0.0287 0.296-0.306-0.025c-0.265-0.0188-0.5-0.0325-0.722-0.0362l-0.0163-0.592-0.136 0.181c0.114-1.46 0.555-3.64 1.29-7.23l0.426-2.11c0.96-4.74-0.815-8.92-1.5-10.3-2 1.33-4 5.37-3 9.89 1.17 5.97 1.29 8.71 1.29 9.54l0.276 0.0213-0.0138 0.604c-0.372 0.004-0.752 0.0275-1.12 0.07l-0.335 0.0375-0.0138-0.324c-0.0687-1.47-0.519-8.83-2.65-12.2l-0.0975 0.0625-0.408-0.451c0.179-0.196 0.282-0.431 0.298-0.684 0.0387-0.626-0.459-1.17-1.11-1.2l-0.0737-0.001c-0.625 0-1.14 0.47-1.18 1.07-0.0175 0.304 0.0875 0.596 0.296 0.825 0.21 0.228 0.498 0.362 0.816 0.381l0.0662 0.001c0.144 0 0.289-0.0275 0.432-0.0813l0.235-0.0888 0.139 0.202c2.21 3.19 2.66 10.9 2.73 12.4l0.01 0.252-0.254 0.055c-0.115 0.0263-0.23 0.0563-0.344 0.085l-0.504 0.132 0.055-0.445c0.429-3.52-1.17-10.4-5.75-10.9-0.261-0.03-0.521-0.045-0.769-0.045-1.27 0-2.36 0.404-3.14 1.17-0.896 0.879-1.38 2.2-1.36 3.71 0.0238 2.04 1.86 4.03 4.19 4.54 0.22 0.0487 0.448 0.0725 0.679 0.0725 1.31 0 2.74-0.805 2.95-2.34 0.0825-0.605-0.171-1.34-0.658-1.87-0.422-0.469-0.962-0.725-1.52-0.725-0.26 0-0.521 0.0537-0.786 0.162-0.115 0.462-0.474 1.56-1.28 1.56-0.475 0-0.942-0.389-1.43-1.19l-0.0163-0.03-0.0112-0.0362c-0.0238-0.0738-0.581-1.88 0.282-3 0.432-0.56 1.12-0.845 2.05-0.845 0.158 0 0.321 0.007 0.49 0.025 0.2 0.0175 4.95 0.538 5.97 9.94l0.025 0.238-0.232 0.08c-3.17 1.05-5.66 3.51-6.66 6.57l-0.08 0.249-0.269-0.0412c-9.66-1.51-9.93-6.1-9.94-6.3-0.0387-0.938 0.179-1.65 0.654-2.13 0.428-0.431 1.05-0.65 1.83-0.65 0.852 0 1.6 0.262 1.64 0.274l0.0362 0.0125 0.0312 0.02c0.878 0.559 1.25 1.07 1.13 1.56-0.159 0.684-1.21 0.94-1.67 1.02-0.381 0.742-0.186 1.36 0.0538 1.76 0.434 0.712 1.34 1.23 2.16 1.23l0.136-0.004c0.988-0.0713 1.59-0.58 1.93-0.996 0.535-0.659 0.769-1.54 0.625-2.36-0.4-2.27-2.36-4.15-4.47-4.29-0.165-0.0113-0.326-0.0175-0.488-0.0175-1.53 0-2.84 0.488-3.7 1.37-0.822 0.844-1.21 2.04-1.12 3.45 0.261 4.02 6.17 6.17 10.3 6.17 0.229 0 0.454-0.007 0.669-0.0225l0.428-0.0262-0.135 0.528-0.065 0.26-0.0537 0.268-0.284-0.025c-0.956-0.0888-9.43-0.94-12.7-3.33l-0.2-0.146 0.104-0.221c0.0725-0.154 0.111-0.315 0.111-0.474-0.004-0.629-0.534-1.14-1.19-1.14-0.651 0-1.18 0.512-1.18 1.14 0.002 0.628 0.532 1.14 1.19 1.14 0.259 0 0.512-0.0875 0.725-0.25l0.444 0.421-0.0712 0.09c3.57 2.35 11.8 3.17 12.7 3.26l0.315 0.0288-0.03 0.301c-0.0237 0.212-0.0337 0.445-0.0412 0.734l-0.595 0.007 0.166 0.0963c-1.51-0.104-0.215 0.292-0.215 0.292" fill="#433721"/>
<path d="m95 30.4-0.01-0.192c0-4.28 3.61-7.76 8.06-7.76 4.44 0 8.06 3.48 8.06 7.76l-0.008 0.192h0.431l0.006-0.192c0-4.51-3.81-8.17-8.49-8.17s-8.48 3.67-8.48 8.17l0.008 0.192h0.432" fill="#433721"/>
<path d="m107 30.4c0-1.96-1.59-3.55-3.55-3.55s-3.55 1.59-3.55 3.55 1.59 3.55 3.55 3.55 3.55-1.59 3.55-3.55" fill="#433721"/>
</svg>
